<svg fill="currentColor" height="24" viewBox="0 0 24 24" width="24" xmlns="http://www.w3.org/2000/svg"><g clip-rule="evenodd" fill-rule="evenodd"><path d="m3.26134 17.2446c0-.4142.33579-.75.75-.75h6.47256c.4142 0 .75.3358.75.75s-.3358.75-.75.75h-6.47256c-.41421 0-.75-.3358-.75-.75z"/><path d="m14.6105 14.5885c.6477-.6476 1.5945-.8148 2.6565-.8148 1.0619 0 2.0087.1672 2.6565.8148s.8153 1.5945.8153 2.657-.1675 2.0093-.8153 2.6569-1.5946.8149-2.6565.8149c-1.062 0-2.0088-.1673-2.6565-.8149-.6478-.6476-.8153-1.5944-.8153-2.6569s.1675-2.0094.8153-2.657zm1.0605 1.0608c-.2029.2028-.3758.6169-.3758 1.5962s.1729 1.3933.3758 1.5961c.2029.2029.617.3757 1.596.3757.9789 0 1.393-.1728 1.5959-.3757.2029-.2028.3758-.6168.3758-1.5961s-.1729-1.3934-.3758-1.5962-.617-.3756-1.5959-.3756c-.979 0-1.3931.1728-1.596.3756z"/><path d="m12.7668 6.75594c0-.41422.3357-.75.75-.75h6.4716c.4142 0 .75.33578.75.75 0 .41421-.3358.75-.75.75h-6.4716c-.4143 0-.75-.33579-.75-.75z"/><path d="m4.0764 4.09797c.64782-.64766 1.59474-.81516 2.65727-.81516 1.06215 0 2.00886.16753 2.65656.81523.64767.6477.81527 1.59441.81527 2.65656 0 1.06249-.1675 2.00932-.81534 2.65696-.64776.64764-1.59454.81484-2.65649.81484-1.06232 0-2.00932-.1672-2.6572-.81477-.648-.64765-.81548-1.59455-.81548-2.65703 0-1.06215.16752-2.00892.81541-2.65663zm1.06052 1.0608c-.20301.20295-.37593.61707-.37593 1.59583 0 .9793.17296 1.3933.37586 1.59609.203.2029.61735.3757 1.59682.3757.97895 0 1.39306-.17277 1.59597-.37563.20286-.20281.37582-.61687.37582-1.59616 0-.97875-.17292-1.39293-.37589-1.5959-.20297-.20298-.61715-.37589-1.5959-.37589-.97926 0-1.39368.17294-1.59675.37596z"/></g></svg>
