<svg enable-background="new 0 0 512 512" height="512" viewBox="0 0 512 512" width="512" xmlns="http://www.w3.org/2000/svg" fill="currentColor"><g><path d="m15 391h362c8.291 0 15-6.709 15-15v-270c0-8.291-6.709-15-15-15h-362c-8.291 0-15 6.709-15 15v270c0 8.291 6.709 15 15 15z"/><path d="m151 421v15c0 8.276-6.724 15-15 15h-30c-8.291 0-15 6.709-15 15s6.709 15 15 15h181c8.291 0 15-6.709 15-15s-6.709-15-15-15h-31c-8.276 0-15-6.724-15-15v-15z"/><path d="m497 31h-150c-8.291 0-15 6.709-15 15v15h45c24.814 0 45 20.186 45 45v270c0 24.814-20.186 45-45 45h-45v45c0 8.291 6.709 15 15 15h150c8.291 0 15-6.709 15-15v-420c0-8.291-6.709-15-15-15zm-30 375c-8.284 0-15-6.716-15-15 0-8.286 6.716-15 15-15s15 6.714 15 15c0 8.284-6.716 15-15 15zm0-60c-8.284 0-15-6.716-15-15 0-8.286 6.716-15 15-15s15 6.714 15 15c0 8.284-6.716 15-15 15z"/></g></svg>
