<svg fill="currentColor" height="24" viewBox="0 0 25 24" width="25" xmlns="http://www.w3.org/2000/svg"><g><path d="m20.9072 0h-16.99997c-1.93 0-3.500003 1.57-3.500003 3.5v17c0 1.93 1.570003 3.5 3.500003 3.5h16.99997c1.93 0 3.5-1.57 3.5-3.5v-17c0-1.93-1.57-3.5-3.5-3.5zm2.5 20.5c0 1.378-1.122 2.5-2.5 2.5h-16.99997c-1.378 0-2.5-1.122-2.5-2.5v-17c0-1.378 1.122-2.5 2.5-2.5h16.99997c1.378 0 2.5 1.122 2.5 2.5zm-10.634-16.34c-.188-.203-.544-.203-.732 0l-6.49997 7c-.135.146-.171.358-.092.54s.259.3.458.3h2.5v7.5c0 .276.224.5.5.5h6.99997c.276 0 .5-.224.5-.5v-7.5h2.5c.198 0 .378-.117.458-.3.079-.182.044-.394-.092-.54zm3.134 6.84c-.276 0-.5.224-.5.5v7.5h-5.99997v-7.5c0-.276-.224-.5-.5-.5h-1.854l5.35397-5.765 5.354 5.765z" /></g></svg>
