<svg enable-background="new 0 0 24 24" viewBox="0 0 24 24" xmlns="http://www.w3.org/2000/svg" fill="currentColor"><g><g><path d="m7 5c-1.103 0-2 .897-2 2s.897 2 2 2h2v-2c0-1.103-.897-2-2-2zm12 2c0-1.103-.897-2-2-2s-2 .897-2 2v2h2c1.103 0 2-.897 2-2zm-14 10c0 1.103.897 2 2 2s2-.897 2-2v-2h-2c-1.103 0-2 .897-2 2zm5-3h4v-4h-4zm5 3c0 1.103.897 2 2 2s2-.897 2-2-.897-2-2-2h-2zm5.5-17h-17c-1.93 0-3.5 1.57-3.5 3.5v17c0 1.93 1.57 3.5 3.5 3.5h17c1.93 0 3.5-1.57 3.5-3.5v-17c0-1.93-1.57-3.5-3.5-3.5zm-3.5 14c1.654 0 3 1.346 3 3s-1.346 3-3 3-3-1.346-3-3v-2h-4v2c0 1.654-1.346 3-3 3s-3-1.346-3-3 1.346-3 3-3h2v-4h-2c-1.654 0-3-1.346-3-3s1.346-3 3-3 3 1.346 3 3v2h4v-2c0-1.654 1.346-3 3-3s3 1.346 3 3-1.346 3-3 3h-2v4z"/></g></g></svg>
