<svg fill="currentColor" height="24" viewBox="0 0 25 24" width="25" xmlns="http://www.w3.org/2000/svg"><clipPath id="clip0_253_29816"><path d="m.407 0h24v24h-24z"/></clipPath><g clip-path="url(#clip0_253_29816)"><path d="m5.90723 10.5h1c.275 0 .5.224.5.5s.224.5.5.5.5-.224.5-.5c0-.827-.673-1.5-1.5-1.5h-1c-.827 0-1.5.673-1.5 1.5v2c0 .827.673 1.5 1.5 1.5h1c.827 0 1.5-.673 1.5-1.5 0-.276-.224-.5-.5-.5s-.5.224-.5.5-.225.5-.5.5h-1c-.275 0-.5-.224-.5-.5v-2c0-.276.225-.5.5-.5zm6.49997-1h-2.99997c-.276 0-.5.224-.5.5s.224.5.5.5h.99997v3.5c0 .276.224.5.5.5s.5-.224.5-.5v-3.5h1c.276 0 .5-.224.5-.5s-.224-.5-.5-.5zm7.5 4h-1.5v-3.5c0-.276-.224-.5-.5-.5s-.5.224-.5.5v4c0 .276.224.5.5.5h2c.276 0 .5-.224.5-.5s-.224-.5-.5-.5zm1-13h-16.99997c-1.93 0-3.500003 1.57-3.500003 3.5v16c0 1.93 1.570003 3.5 3.500003 3.5h16.99997c1.93 0 3.5-1.57 3.5-3.5v-16c0-1.93-1.57-3.5-3.5-3.5zm2.5 19.5c0 1.378-1.121 2.5-2.5 2.5h-16.99997c-1.379 0-2.5-1.122-2.5-2.5v-16c0-1.378 1.121-2.5 2.5-2.5h16.99997c1.379 0 2.5 1.122 2.5 2.5zm-7-9c0-.827-.673-1.5-1.5-1.5h-1c-.276 0-.5.224-.5.5v4c0 .276.224.5.5.5s.5-.224.5-.5v-.793l1.146 1.147c.098.097.226.146.354.146s.256-.049.353-.147c.195-.195.195-.512 0-.707l-1.159-1.159c.736-.095 1.306-.726 1.306-1.487zm-1.5.5h-.5v-1h.5c.275 0 .5.224.5.5s-.225.5-.5.5z" fill="#000"/></g></svg>
