<svg fill="currentColor" height="24" viewBox="0 0 25 24" width="25" xmlns="http://www.w3.org/2000/svg"><g><path d="m8.40723 10.5c.276 0 .5-.224.5-.5s-.224-.5-.5-.5h-2c-.276 0-.5.224-.5.5v4c0 .276.224.5.5.5h2c.276 0 .5-.224.5-.5s-.224-.5-.5-.5h-1.5v-1h1c.276 0 .5-.224.5-.5s-.224-.5-.5-.5h-1v-1zm3.65597 1.019-.148-.025c-.877-.143-1.008-.371-1.008-.494 0-.199.399-.5 1.001-.5.591 0 .981.281 1.001.483.026.274.268.484.545.45.275-.026.476-.27.45-.545-.076-.792-.934-1.389-1.997-1.389-1.122 0-2.00097.659-2.00097 1.5 0 .783.62097 1.281 1.84697 1.481l.081-.493.067.518c.831.137 1.005.345 1.005.495 0 .199-.399.5-1.001.5-.591 0-.981-.282-1.001-.484-.026-.274-.263-.483-.545-.45-.275.026-.47597.27-.44997.545.076.792.93397 1.389 1.99697 1.389 1.122 0 2.001-.659 2.001-1.5 0-.782-.62-1.28-1.844-1.481zm4.344-1.019h1c.276 0 .5.224.5.5s.224.5.5.5.5-.224.5-.5c0-.827-.673-1.5-1.5-1.5h-1c-.827 0-1.5.673-1.5 1.5v2c0 .827.673 1.5 1.5 1.5h1c.827 0 1.5-.673 1.5-1.5 0-.276-.224-.5-.5-.5s-.5.224-.5.5-.224.5-.5.5h-1c-.276 0-.5-.224-.5-.5v-2c0-.276.224-.5.5-.5zm4-7h-15.99997c-1.93 0-3.500003 1.57-3.500003 3.5v10c0 1.93 1.570003 3.5 3.500003 3.5h15.99997c1.93 0 3.5-1.57 3.5-3.5v-10c0-1.93-1.57-3.5-3.5-3.5zm2.5 13.5c0 1.378-1.122 2.5-2.5 2.5h-15.99997c-1.378 0-2.5-1.122-2.5-2.5v-10c0-1.378 1.122-2.5 2.5-2.5h15.99997c1.378 0 2.5 1.122 2.5 2.5z" /></g></svg>
