<svg fill="currentColor" height="24" viewBox="0 0 25 24" width="25" xmlns="http://www.w3.org/2000/svg"><clipPath id="clip0_253_29804"><path d="m.407 0h24v24h-24z"/></clipPath><g clip-path="url(#clip0_253_29804)"><path d="m17.4072 10c1.654 0 3-1.346 3-3s-1.346-3-3-3-3 1.346-3 3v2h-4v-2c0-1.654-1.34597-3-2.99997-3s-3 1.346-3 3 1.346 3 3 3h2v4h-2c-1.654 0-3 1.346-3 3s1.346 3 3 3 2.99997-1.346 2.99997-3v-2h4v2c0 1.654 1.346 3 3 3s3-1.346 3-3-1.346-3-3-3h-2v-4zm-2-3c0-1.103.897-2 2-2s2 .897 2 2-.897 2-2 2h-2zm-5.99997 10c0 1.103-.897 2-2 2s-2-.897-2-2 .897-2 2-2h2zm0-8h-2c-1.103 0-2-.897-2-2s.897-2 2-2 2 .897 2 2zm4.99997 5h-4v-4h4zm3 1c1.103 0 2 .897 2 2s-.897 2-2 2-2-.897-2-2v-2zm3.5-15h-16.99997c-1.93 0-3.500003 1.57-3.500003 3.5v17c0 1.93 1.570003 3.5 3.500003 3.5h16.99997c1.93 0 3.5-1.57 3.5-3.5v-17c0-1.93-1.57-3.5-3.5-3.5zm2.5 20.5c0 1.378-1.122 2.5-2.5 2.5h-16.99997c-1.378 0-2.5-1.122-2.5-2.5v-17c0-1.378 1.122-2.5 2.5-2.5h16.99997c1.378 0 2.5 1.122 2.5 2.5z" fill="#000"/></g></svg>
