<svg enable-background="new 0 0 520 520" height="512" viewBox="0 0 520 520" width="512" xmlns="http://www.w3.org/2000/svg" fill="currentColor"><g><g><path d="m490 80h-460c-5.523 0-10 4.477-10 10v400c0 5.522 4.477 10 10 10h460c5.522 0 10-4.478 10-10v-400c0-5.523-4.478-10-10-10zm-10 20v20h-150c-5.522 0-10 4.477-10 10s4.478 10 10 10h150v20h-440v-60zm-343.348 263.556-22.788-22.787 23.57-23.57 22.788 22.787c3.453 3.452 8.894 3.905 12.872 1.074 18.333-13.056 39.736-21.922 61.894-25.64 4.817-.809 8.345-4.979 8.345-9.862v-32.225h33.333v32.225c0 4.884 3.528 9.054 8.345 9.862 22.158 3.718 43.561 12.584 61.895 25.64 3.978 2.834 9.419 2.379 12.872-1.074l22.787-22.787 23.57 23.57-22.788 22.787c-3.452 3.453-3.907 8.895-1.074 12.872 13.056 18.334 21.922 39.736 25.64 61.895.809 4.816 4.979 8.345 9.862 8.345h32.225v33.332h-50.361c-5.145-72.547-65.805-130-139.639-130s-134.494 57.453-139.639 130h-50.361v-33.333h32.225c4.884 0 9.054-3.528 9.862-8.345 3.718-22.158 12.584-43.561 25.64-61.895 2.832-3.977 2.378-9.418-1.075-12.871zm242.928 116.444h-239.16c5.099-61.506 56.779-110 119.58-110 62.8 0 114.481 48.494 119.58 110zm90.42 0v-43.333c0-5.522-4.478-10-10-10h-33.983c-4.279-19.373-12.016-38.048-22.7-54.795l24.032-24.032c3.905-3.905 3.905-10.237 0-14.143l-37.712-37.713c-1.875-1.875-4.419-2.929-7.071-2.929s-5.195 1.054-7.071 2.929l-24.032 24.032c-16.746-10.685-35.422-18.421-54.795-22.7v-33.983c0-5.522-4.478-10-10-10h-53.333c-5.523 0-10 4.478-10 10v33.983c-19.374 4.279-38.049 12.016-54.795 22.7l-24.033-24.032c-1.875-1.875-4.419-2.929-7.071-2.929s-5.196 1.054-7.071 2.929l-37.712 37.713c-3.905 3.905-3.905 10.237 0 14.143l24.032 24.032c-10.685 16.747-18.422 35.422-22.701 54.795h-33.984c-5.523 0-10 4.478-10 10v43.333h-10v-300h440v300z"/><circle cx="70" cy="130" r="10"/><circle cx="110" cy="130" r="10"/><circle cx="150" cy="130" r="10"/></g></g></svg>
