<svg enable-background="new 0 0 100 100" viewBox="0 0 100 100" xmlns="http://www.w3.org/2000/svg" fill="currentColor"><path d="m94.9505463 37.3586884h-32.4831772l-10.0417481-30.9056831c-.3392639-1.0346942-1.3230209-1.7470846-2.4256172-1.7470846s-2.0863495.7123904-2.4256172 1.7470846l-10.0417519 30.9056831h-32.4832105c-1.1025951 0-2.0863507.7123871-2.4256167 1.7640648-.3392668 1.0347939.0339587 2.1882248.9329195 2.8328018l26.2748604 19.099659-10.0247713 30.9056854c-.3562469 1.0516739.0169773 2.1882248.9159393 2.8495865.8990612.6447906 2.1033306.6447906 2.9854126 0l26.2918358-19.0996628 26.2918358 19.0996628c.4410477.3223877.9668808.4749985 1.4927063.4749985.5258179 0 1.0516663-.1526108 1.4926987-.4749985.8989563-.6613541 1.2552032-1.7979279.9159393-2.8495865l-10.0247726-30.9056855 26.2748642-19.099659c.8989563-.6445732 1.2721863-1.7980232.9329224-2.8328018-.3392639-1.0516777-1.3230209-1.7640648-2.425621-1.7640648h-.0000306z"/></svg>
