<svg fill="currentColor" height="25" viewBox="0 0 25 25" width="25" xmlns="http://www.w3.org/2000/svg" xmlns:xlink="http://www.w3.org/1999/xlink"><g><path d="m10.1042 24.5c-.78103 0-1.51203-.303-2.06203-.853l-6.587-6.587c-.549997-.55-.852997-1.281-.852997-2.058 0-.781.303-1.512.852997-2.062l11.12203-11.122c.85-.85 1.98-1.318 3.182-1.318h6.343c1.378 0 2.5 1.122 2.5 2.5v6.343c0 1.202-.468 2.332-1.318 3.182l-11.122 11.122c-.55.55-1.281.853-2.058.853zm5.655-23c-.935 0-1.813.364-2.475 1.025l-11.12203 11.122c-.361.361-.56.841-.56 1.351 0 .514.199.994.56 1.354l6.588 6.588c.725.724 1.98603.719 2.70503 0l11.123-11.123c.66-.66 1.024-1.539 1.024-2.474v-6.343c0-.827-.673-1.5-1.5-1.5z"/><path d="m19.1022 8.5c-1.378 0-2.5-1.122-2.5-2.5s1.122-2.5 2.5-2.5 2.5 1.122 2.5 2.5-1.122 2.5-2.5 2.5zm0-4c-.827 0-1.5.673-1.5 1.5s.673 1.5 1.5 1.5 1.5-.673 1.5-1.5-.673-1.5-1.5-1.5z"/></g></svg>
