<?xml version="1.0" encoding="iso-8859-1"?>
<svg version="1.1" xmlns="http://www.w3.org/2000/svg" x="0px" y="0px"
     viewBox="0 0 512 512" style="enable-background:new 0 0 512 512;" xml:space="preserve" fill="currentColor">
<g>
	<g>
		<rect x="242.286" y="36.571" width="27.429" height="18.286"/>
	</g>
</g>
<g>
	<g>
		<path d="M256,420.571c-17.643,0-32,14.357-32,32c0,17.643,14.357,32,32,32c17.643,0,32-14.357,32-32
			C288,434.928,273.643,420.571,256,420.571z M256,466.286c-7.563,0-13.714-6.152-13.714-13.714s6.152-13.714,13.714-13.714
			s13.714,6.152,13.714,13.714S263.563,466.286,256,466.286z"/>
	</g>
</g>
<g>
	<g>
		<path d="M406.804,0H105.196C79.964,0,59.429,20.478,59.429,45.647v420.705c0,25.17,20.536,45.647,45.768,45.647h301.607
			c25.232,0,45.768-20.478,45.768-45.647V45.647C452.571,20.478,432.036,0,406.804,0z M434.286,466.353
			c0,15.089-12.33,27.362-27.482,27.362H105.196c-15.152,0-27.482-12.272-27.482-27.362V45.647c0-15.089,12.33-27.362,27.482-27.362
			h301.607c15.152,0,27.482,12.272,27.482,27.362V466.353z"/>
	</g>
</g>
<g>
</g>
<g>
</g>
<g>
</g>
<g>
</g>
<g>
</g>
<g>
</g>
<g>
</g>
<g>
</g>
<g>
</g>
<g>
</g>
<g>
</g>
<g>
</g>
<g>
</g>
<g>
</g>
<g>
</g>
</svg>
