<svg height="469pt" viewBox="-106 0 469 469.33333" width="469pt" xmlns="http://www.w3.org/2000/svg" fill="currentColor"><path d="m206.246094 0h-156.160156c-27.558594.03125-49.890626 22.363281-49.917969 49.921875v369.492187c.027343 27.558594 22.359375 49.890626 49.917969 49.917969h156.160156c27.558594-.027343 49.890625-22.359375 49.921875-49.917969v-369.492187c-.03125-27.558594-22.363281-49.890625-49.921875-49.921875zm28.585937 419.414062c-.015625 15.78125-12.804687 28.570313-28.585937 28.585938h-156.160156c-15.78125-.015625-28.570313-12.804688-28.585938-28.585938v-369.492187c.015625-15.785156 12.804688-28.574219 28.585938-28.589844h156.160156c15.78125.015625 28.570312 12.804688 28.585937 28.589844zm0 0"/><path d="m160.167969 42.667969h-64c-5.890625 0-10.667969 4.773437-10.667969 10.664062s4.777344 10.667969 10.667969 10.667969h64c5.890625 0 10.664062-4.777344 10.664062-10.667969s-4.773437-10.664062-10.664062-10.664062zm0 0"/><path d="m149.5 405.332031c0 11.785157-9.550781 21.335938-21.332031 21.335938-11.785157 0-21.335938-9.550781-21.335938-21.335938 0-11.78125 9.550781-21.332031 21.335938-21.332031 11.78125 0 21.332031 9.550781 21.332031 21.332031zm0 0"/></svg>
