<svg fill="currentColor" height="512" viewBox="0 0 24 24" width="512" xmlns="http://www.w3.org/2000/svg"><path clip-rule="evenodd" d="m4 3.5c-1.38071 0-2.5 1.11929-2.5 2.5v10c0 1.3807 1.11929 2.5 2.5 2.5h6.191l-1.00002 2h-2.19098c-.27614 0-.5.2239-.5.5s.22386.5.5.5h2.48918c.00696.0001.01392.0001.02087 0h4.97995c.0069.0001.0138.0001.0208 0h2.4892c.2761 0 .5-.2239.5-.5s-.2239-.5-.5-.5h-2.191l-1-2h6.191c1.3807 0 2.5-1.1193 2.5-2.5v-10c0-1.38071-1.1193-2.5-2.5-2.5zm9.691 17-1-2h-1.382l-1 2zm-.7019-3c.007-.0001.014-.0001.021 0h6.9899c.8284 0 1.5-.6716 1.5-1.5v-10c0-.82843-.6716-1.5-1.5-1.5h-16c-.82843 0-1.5.67157-1.5 1.5v10c0 .8284.67157 1.5 1.5 1.5h6.9899c.007-.0001.014-.0001.0209 0z" fill-rule="evenodd"/></svg>
