<?xml version="1.0" encoding="utf-8"?><svg xmlns="http://www.w3.org/2000/svg" xmlns:xlink="http://www.w3.org/1999/xlink"><style>:root>svg{display:none}:root>svg:target{display:block}</style><svg viewBox="0 0 404.257 404.257" style="enable-background:new 0 0 404.257 404.257" xml:space="preserve" fill="currentColor" id="i-chevron--down" xmlns="http://www.w3.org/2000/svg"><path d="M386.257 114.331 202.128 252.427 18 114.331l-18 24 202.128 151.596 202.129-151.596z"/></svg><svg viewBox="0 0 329.269 329" fill="currentColor" id="i-close" xmlns="http://www.w3.org/2000/svg"><path d="M194.8 164.77 323.013 36.555c8.343-8.34 8.343-21.825 0-30.164-8.34-8.34-21.825-8.34-30.164 0L164.633 134.605 36.422 6.391c-8.344-8.34-21.824-8.34-30.164 0-8.344 8.34-8.344 21.824 0 30.164l128.21 128.215L6.259 292.984c-8.344 8.34-8.344 21.825 0 30.164a21.266 21.266 0 0 0 15.082 6.25c5.46 0 10.922-2.09 15.082-6.25l128.21-128.214 128.216 128.214a21.273 21.273 0 0 0 15.082 6.25c5.46 0 10.922-2.09 15.082-6.25 8.343-8.34 8.343-21.824 0-30.164zm0 0"/></svg><svg fill="currentColor" viewBox="0 0 512 512" id="i-cog-wheel" xmlns="http://www.w3.org/2000/svg"><path d="M307.734 485.97a9 9 0 0 1-7.534-4.079l-29.079-44.521a179.556 179.556 0 0 1-30.252 0l-29.079 44.521a8.999 8.999 0 0 1-9.611 3.835 232.817 232.817 0 0 1-50.671-18.443 8.997 8.997 0 0 1-4.898-9.116l6.338-52.798a179.276 179.276 0 0 1-23.168-19.44l-50.896 15.405a9.005 9.005 0 0 1-9.828-3.241 232.87 232.87 0 0 1-26.963-46.697 9.001 9.001 0 0 1 2.107-10.131l38.79-36.37a179.234 179.234 0 0 1-5.252-29.79l-48.892-20.91a8.998 8.998 0 0 1-5.445-8.799 232.774 232.774 0 0 1 9.362-53.105 9 9 0 0 1 8.126-6.407l53.098-2.928a178.6 178.6 0 0 1 15.128-26.202l-24.019-47.438a8.999 8.999 0 0 1 1.484-10.243 232.925 232.925 0 0 1 41.308-34.66 9.002 9.002 0 0 1 10.345.316l42.553 31.89a179.4 179.4 0 0 1 28.431-10.351l12.096-51.784a9 9 0 0 1 7.726-6.893 234.13 234.13 0 0 1 53.926 0 9 9 0 0 1 7.726 6.893l12.097 51.784a179.523 179.523 0 0 1 28.43 10.351l42.553-31.89a9.002 9.002 0 0 1 10.345-.316 233.425 233.425 0 0 1 41.306 34.657 9.002 9.002 0 0 1 1.486 10.246l-24.02 47.44a179.088 179.088 0 0 1 15.128 26.2l53.099 2.928a9 9 0 0 1 8.128 6.411 233.308 233.308 0 0 1 9.36 53.101 8.998 8.998 0 0 1-5.445 8.799l-48.892 20.91a179.234 179.234 0 0 1-5.252 29.79l38.79 36.37a9 9 0 0 1 2.107 10.131 232.87 232.87 0 0 1-26.963 46.697 8.999 8.999 0 0 1-9.828 3.241l-50.896-15.405a179.196 179.196 0 0 1-23.168 19.44l6.338 52.798a9 9 0 0 1-4.898 9.116 232.869 232.869 0 0 1-50.681 18.443 8.985 8.985 0 0 1-2.081.244zm-32.067-67.1a9.001 9.001 0 0 1 7.533 4.078l28.559 43.723a215.05 215.05 0 0 0 34.995-12.735l-6.225-51.854a9 9 0 0 1 3.989-8.592 161.071 161.071 0 0 0 28.533-23.94 9 9 0 0 1 9.15-2.434l49.983 15.129a215.009 215.009 0 0 0 18.618-32.242l-38.095-35.718a9.002 9.002 0 0 1-2.467-9.143 161.272 161.272 0 0 0 6.469-36.689 9 9 0 0 1 5.445-7.748l48.015-20.535a215.295 215.295 0 0 0-6.467-36.668l-52.146-2.875a9.001 9.001 0 0 1-7.768-5.422 161.064 161.064 0 0 0-18.629-32.265 9.001 9.001 0 0 1-.807-9.435l23.588-46.587a215.56 215.56 0 0 0-28.521-23.933l-41.789 31.318a9 9 0 0 1-9.434.842 161.314 161.314 0 0 0-35.014-12.748 9 9 0 0 1-6.684-6.709l-11.879-50.852a216.273 216.273 0 0 0-37.245 0l-11.879 50.852a9 9 0 0 1-6.684 6.709 161.295 161.295 0 0 0-35.014 12.748 9.003 9.003 0 0 1-9.434-.842l-41.79-31.318a215.07 215.07 0 0 0-28.522 23.931l23.589 46.589a8.998 8.998 0 0 1-.81 9.439 160.572 160.572 0 0 0-18.626 32.261 9 9 0 0 1-7.768 5.422l-52.148 2.876a214.992 214.992 0 0 0-6.465 36.667l48.016 20.536a8.999 8.999 0 0 1 5.445 7.748 161.163 161.163 0 0 0 6.469 36.689 9 9 0 0 1-2.467 9.143l-38.095 35.718a214.96 214.96 0 0 0 18.618 32.242l49.983-15.129a9 9 0 0 1 9.15 2.434 161.107 161.107 0 0 0 28.533 23.94 8.998 8.998 0 0 1 3.989 8.592l-6.225 51.854a214.92 214.92 0 0 0 34.986 12.735l28.558-43.723a8.996 8.996 0 0 1 8.575-4.018 161.326 161.326 0 0 0 37.259 0 9.145 9.145 0 0 1 1.05-.061zm-19.672-62.28c-53.795 0-97.56-43.765-97.56-97.56 0-53.8 43.765-97.57 97.56-97.57 53.8 0 97.569 43.77 97.569 97.57 0 53.795-43.769 97.56-97.569 97.56zm0-177.13c-43.869 0-79.56 35.695-79.56 79.57 0 43.869 35.69 79.56 79.56 79.56 43.875 0 79.569-35.69 79.569-79.56 0-43.875-35.694-79.57-79.569-79.57z"/></svg><svg fill="currentColor" viewBox="0 0 25 24" id="i-key-cmd" xmlns="http://www.w3.org/2000/svg"><path d="M17.407 10c1.654 0 3-1.346 3-3s-1.346-3-3-3-3 1.346-3 3v2h-4V7c0-1.654-1.346-3-3-3s-3 1.346-3 3 1.346 3 3 3h2v4h-2c-1.654 0-3 1.346-3 3s1.346 3 3 3 3-1.346 3-3v-2h4v2c0 1.654 1.346 3 3 3s3-1.346 3-3-1.346-3-3-3h-2v-4zm-2-3c0-1.103.897-2 2-2s2 .897 2 2-.897 2-2 2h-2zm-6 10c0 1.103-.897 2-2 2s-2-.897-2-2 .897-2 2-2h2zm0-8h-2c-1.103 0-2-.897-2-2s.897-2 2-2 2 .897 2 2zm5 5h-4v-4h4zm3 1c1.103 0 2 .897 2 2s-.897 2-2 2-2-.897-2-2v-2zm3.5-15h-17c-1.93 0-3.5 1.57-3.5 3.5v17c0 1.93 1.57 3.5 3.5 3.5h17c1.93 0 3.5-1.57 3.5-3.5v-17c0-1.93-1.57-3.5-3.5-3.5zm2.5 20.5c0 1.378-1.122 2.5-2.5 2.5h-17a2.503 2.503 0 0 1-2.5-2.5v-17c0-1.378 1.122-2.5 2.5-2.5h17c1.378 0 2.5 1.122 2.5 2.5z"/></svg><svg viewBox="0 0 24 24" fill="currentColor" id="i-key-cmd--filled" xmlns="http://www.w3.org/2000/svg"><path d="M7 5c-1.103 0-2 .897-2 2s.897 2 2 2h2V7c0-1.103-.897-2-2-2zm12 2c0-1.103-.897-2-2-2s-2 .897-2 2v2h2c1.103 0 2-.897 2-2zM5 17c0 1.103.897 2 2 2s2-.897 2-2v-2H7c-1.103 0-2 .897-2 2zm5-3h4v-4h-4zm5 3c0 1.103.897 2 2 2s2-.897 2-2-.897-2-2-2h-2zm5.5-17h-17C1.57 0 0 1.57 0 3.5v17C0 22.43 1.57 24 3.5 24h17c1.93 0 3.5-1.57 3.5-3.5v-17C24 1.57 22.43 0 20.5 0zM17 14c1.654 0 3 1.346 3 3s-1.346 3-3 3-3-1.346-3-3v-2h-4v2c0 1.654-1.346 3-3 3s-3-1.346-3-3 1.346-3 3-3h2v-4H7c-1.654 0-3-1.346-3-3s1.346-3 3-3 3 1.346 3 3v2h4V7c0-1.654 1.346-3 3-3s3 1.346 3 3-1.346 3-3 3h-2v4z"/></svg><svg fill="currentColor" viewBox="0 0 25 24" id="i-key-ctrl" xmlns="http://www.w3.org/2000/svg"><path d="M5.907 10.5h1c.275 0 .5.224.5.5a.5.5 0 0 0 1 0c0-.827-.673-1.5-1.5-1.5h-1c-.827 0-1.5.673-1.5 1.5v2c0 .827.673 1.5 1.5 1.5h1c.827 0 1.5-.673 1.5-1.5a.5.5 0 0 0-1 0 .5.5 0 0 1-.5.5h-1a.5.5 0 0 1-.5-.5v-2a.5.5 0 0 1 .5-.5zm6.5-1h-3a.5.5 0 0 0 0 1h1V14a.5.5 0 0 0 1 0v-3.5h1a.5.5 0 0 0 0-1zm7.5 4h-1.5V10a.5.5 0 0 0-1 0v4a.5.5 0 0 0 .5.5h2a.5.5 0 0 0 0-1zm1-13h-17C1.977.5.407 2.07.407 4v16c0 1.93 1.57 3.5 3.5 3.5h17c1.93 0 3.5-1.57 3.5-3.5V4c0-1.93-1.57-3.5-3.5-3.5zm2.5 19.5c0 1.378-1.12 2.5-2.5 2.5h-17a2.503 2.503 0 0 1-2.5-2.5V4c0-1.378 1.121-2.5 2.5-2.5h17c1.38 0 2.5 1.122 2.5 2.5zm-7-9c0-.827-.673-1.5-1.5-1.5h-1a.5.5 0 0 0-.5.5v4a.5.5 0 0 0 1 0v-.793l1.146 1.147a.502.502 0 0 0 .707-.001.5.5 0 0 0 0-.707l-1.159-1.159A1.502 1.502 0 0 0 16.407 11zm-1.5.5h-.5v-1h.5a.5.5 0 0 1 0 1z"/></svg><svg fill="currentColor" viewBox="0 0 25 24" id="i-key-esc" xmlns="http://www.w3.org/2000/svg"><path d="M8.407 10.5a.5.5 0 0 0 0-1h-2a.5.5 0 0 0-.5.5v4a.5.5 0 0 0 .5.5h2a.5.5 0 0 0 0-1h-1.5v-1h1a.5.5 0 0 0 0-1h-1v-1zm3.656 1.019-.148-.025c-.877-.143-1.008-.371-1.008-.494 0-.199.4-.5 1.001-.5.591 0 .981.281 1.001.483a.494.494 0 0 0 .545.45.5.5 0 0 0 .45-.545c-.076-.792-.934-1.389-1.997-1.389-1.122 0-2 .659-2 1.5 0 .783.62 1.281 1.846 1.481l.081-.493.067.518c.831.137 1.005.345 1.005.495 0 .199-.399.5-1 .5-.592 0-.982-.282-1.002-.484a.492.492 0 0 0-.545-.45.5.5 0 0 0-.45.545c.076.792.934 1.389 1.997 1.389 1.122 0 2.001-.659 2.001-1.5 0-.782-.62-1.28-1.844-1.481zm4.344-1.019h1c.276 0 .5.224.5.5a.5.5 0 0 0 1 0c0-.827-.673-1.5-1.5-1.5h-1c-.827 0-1.5.673-1.5 1.5v2c0 .827.673 1.5 1.5 1.5h1c.827 0 1.5-.673 1.5-1.5a.5.5 0 0 0-1 0 .5.5 0 0 1-.5.5h-1a.5.5 0 0 1-.5-.5v-2a.5.5 0 0 1 .5-.5zm4-7h-16c-1.93 0-3.5 1.57-3.5 3.5v10c0 1.93 1.57 3.5 3.5 3.5h16c1.93 0 3.5-1.57 3.5-3.5V7c0-1.93-1.57-3.5-3.5-3.5zm2.5 13.5c0 1.378-1.122 2.5-2.5 2.5h-16a2.503 2.503 0 0 1-2.5-2.5V7c0-1.378 1.122-2.5 2.5-2.5h16c1.378 0 2.5 1.122 2.5 2.5z"/></svg><svg fill="currentColor" viewBox="0 0 25 24" id="i-key-shift" xmlns="http://www.w3.org/2000/svg"><path d="M20.907 0h-17c-1.93 0-3.5 1.57-3.5 3.5v17c0 1.93 1.57 3.5 3.5 3.5h17c1.93 0 3.5-1.57 3.5-3.5v-17c0-1.93-1.57-3.5-3.5-3.5zm2.5 20.5c0 1.378-1.122 2.5-2.5 2.5h-17a2.503 2.503 0 0 1-2.5-2.5v-17c0-1.378 1.122-2.5 2.5-2.5h17c1.378 0 2.5 1.122 2.5 2.5zM12.773 4.16a.516.516 0 0 0-.732 0l-6.5 7a.502.502 0 0 0 .366.84h2.5v7.5a.5.5 0 0 0 .5.5h7a.5.5 0 0 0 .5-.5V12h2.5a.5.5 0 0 0 .366-.84zM15.907 11a.5.5 0 0 0-.5.5V19h-6v-7.5a.5.5 0 0 0-.5-.5H7.053l5.354-5.765L17.761 11z"/></svg><svg viewBox="0 0 520 520" fill="currentColor" id="i-page-setting" xmlns="http://www.w3.org/2000/svg"><path d="M490 80H30c-5.523 0-10 4.477-10 10v400c0 5.522 4.477 10 10 10h460c5.522 0 10-4.478 10-10V90c0-5.523-4.478-10-10-10zm-10 20v20H330c-5.522 0-10 4.477-10 10s4.478 10 10 10h150v20H40v-60zM136.652 363.556l-22.788-22.787 23.57-23.57 22.788 22.787a10.003 10.003 0 0 0 12.872 1.074c18.333-13.056 39.736-21.922 61.894-25.64a10.001 10.001 0 0 0 8.345-9.862v-32.225h33.333v32.225a10 10 0 0 0 8.345 9.862c22.158 3.718 43.561 12.584 61.895 25.64a9.998 9.998 0 0 0 12.872-1.074l22.787-22.787 23.57 23.57-22.788 22.787a10 10 0 0 0-1.074 12.872c13.056 18.334 21.922 39.736 25.64 61.895a10.002 10.002 0 0 0 9.862 8.345H450V480h-50.361C394.494 407.453 333.834 350 260 350s-134.494 57.453-139.639 130H70v-33.333h32.225a10 10 0 0 0 9.862-8.345c3.718-22.158 12.584-43.561 25.64-61.895a10 10 0 0 0-1.075-12.871zM379.58 480H140.42c5.099-61.506 56.779-110 119.58-110 62.8 0 114.481 48.494 119.58 110zm90.42 0v-43.333c0-5.522-4.478-10-10-10h-33.983a170.69 170.69 0 0 0-22.7-54.795l24.032-24.032c3.905-3.905 3.905-10.237 0-14.143l-37.712-37.713a10.001 10.001 0 0 0-14.142 0l-24.032 24.032a170.658 170.658 0 0 0-54.795-22.7v-33.983c0-5.522-4.478-10-10-10h-53.333c-5.523 0-10 4.478-10 10v33.983a170.671 170.671 0 0 0-54.795 22.7l-24.033-24.032a10.001 10.001 0 0 0-14.142 0l-37.712 37.713c-3.905 3.905-3.905 10.237 0 14.143l24.032 24.032a170.67 170.67 0 0 0-22.701 54.795H60c-5.523 0-10 4.478-10 10V480H40V180h440v300z"/><circle cx="70" cy="130" r="10"/><circle cx="110" cy="130" r="10"/><circle cx="150" cy="130" r="10"/></svg><svg fill="currentColor" viewBox="0 0 25 25" id="i-tag" xmlns="http://www.w3.org/2000/svg"><path d="M10.104 24.5a2.894 2.894 0 0 1-2.062-.853L1.455 17.06a2.892 2.892 0 0 1-.853-2.058c0-.781.303-1.512.853-2.062L12.577 1.818A4.47 4.47 0 0 1 15.76.5h6.343c1.378 0 2.5 1.122 2.5 2.5v6.343a4.47 4.47 0 0 1-1.318 3.182L12.162 23.647c-.55.55-1.28.853-2.058.853zm5.655-23c-.935 0-1.813.364-2.475 1.025L2.162 13.647c-.36.361-.56.841-.56 1.351 0 .514.2.994.56 1.354L8.75 22.94c.725.724 1.986.719 2.705 0l11.123-11.123a3.476 3.476 0 0 0 1.024-2.474V3c0-.827-.673-1.5-1.5-1.5z"/><path d="M19.102 8.5c-1.378 0-2.5-1.122-2.5-2.5s1.122-2.5 2.5-2.5 2.5 1.122 2.5 2.5-1.122 2.5-2.5 2.5zm0-4c-.827 0-1.5.673-1.5 1.5s.673 1.5 1.5 1.5 1.5-.673 1.5-1.5-.673-1.5-1.5-1.5z"/></svg><svg fill="currentColor" viewBox="0 0 40 40" id="i-text" xmlns="http://www.w3.org/2000/svg"><g clip-rule="evenodd" fill-rule="evenodd"><path d="M3.75 10c0-.69.56-1.25 1.25-1.25h30a1.25 1.25 0 1 1 0 2.5H5c-.69 0-1.25-.56-1.25-1.25zM3.75 30c0-.69.56-1.25 1.25-1.25h30a1.25 1.25 0 1 1 0 2.5H5c-.69 0-1.25-.56-1.25-1.25zM10.417 20c0-.69.56-1.25 1.25-1.25H35a1.25 1.25 0 1 1 0 2.5H11.667c-.69 0-1.25-.56-1.25-1.25z"/></g></svg><svg viewBox="0 0 1920 720" style="enable-background:new 0 0 1920 720" xml:space="preserve" fill="currentColor" id="i-valantic" xmlns="http://www.w3.org/2000/svg"><path d="M1656 417.6c-7.8 14.8-24.3 23.9-43.6 23.9-30 0-51.8-22.4-51.8-53.2s21.8-53.2 51.8-53.2c19.2 0 35.3 8.9 43.6 23.9l54-31.4c-19.3-33.1-56.2-53.6-96.8-53.6-65.4 0-114.7 49.1-114.7 114.2s49.3 114.2 114.7 114.2c40.6 0 77.5-20.6 96.8-54l-54-30.8zM1417 280.2h62v216.2h-62zM1448 177.5c-20.4 0-37.6 17.2-37.6 37.6s17.2 37.6 37.6 37.6 37.6-17.2 37.6-37.6-17.2-37.6-37.6-37.6zM1309.8 481.3c16.2 14.6 44.1 19.5 87.8 15.2v-55.9c-19.9 1.1-32.8.3-39.9-6.3-3.7-3.5-5.5-8.3-5.5-14.8v-80h45.4v-59.4h-45.4v-75.9l-62 18.6v57.3H1255v59.3h35.2v80c0 30.2 6.2 49.8 19.6 61.9zM1141.4 336c23 0 41.7 18.7 41.7 41.7v118.6h62V363.5c0-49.4-40-89.5-89.4-89.5-18.9 0-37.4 6-52.7 17.2l-3.3 2.4v-13.4h-62v216.2h62V377.7c.1-23 18.7-41.7 41.7-41.7zM1007.2 496.3V280.2h-62v24.1l-3.6-4.1c-15-17.4-36.6-26.2-64.1-26.2s-53.4 11.7-72.8 32.9c-19.7 21.5-30.5 50.4-30.5 81.4s10.8 59.9 30.5 81.4c19.4 21.2 45.2 32.9 72.8 32.9s49-8.8 64.1-26.2l3.6-4.1v24.1l62-.1zM890.8 444c-32.6 0-54.5-22.4-54.5-55.8s21.9-55.8 54.5-55.8 54.5 22.4 54.5 55.8-22 55.8-54.5 55.8zM692.8 196.1v300.2h62V177.5zM662.3 496.3V280.2h-62v24.1l-3.6-4.1c-15.1-17.4-36.6-26.2-64.1-26.2s-53.4 11.7-72.8 32.9c-19.6 21.5-30.5 50.4-30.5 81.4s10.8 59.9 30.5 81.4c19.4 21.2 45.2 32.9 72.8 32.9 27.5 0 49-8.8 64.1-26.2l3.6-4.1v24.1l62-.1zM545.8 444c-32.6 0-54.5-22.4-54.5-55.8s21.9-55.8 54.5-55.8 54.5 22.4 54.5 55.8-21.9 55.8-54.5 55.8zM373.3 280.2 326 424.4l-47.3-144.2H210l80 216.1h72l80-216.1z"/></svg><svg fill="currentColor" viewBox="0 0 24 24" id="i-viewport--desktop" xmlns="http://www.w3.org/2000/svg"><path clip-rule="evenodd" d="M4 3.5A2.5 2.5 0 0 0 1.5 6v10A2.5 2.5 0 0 0 4 18.5h6.191l-1 2H7a.5.5 0 0 0 0 1h10a.5.5 0 0 0 0-1h-2.191l-1-2H20a2.5 2.5 0 0 0 2.5-2.5V6A2.5 2.5 0 0 0 20 3.5zm9.691 17-1-2h-1.382l-1 2zm-.702-3H20a1.5 1.5 0 0 0 1.5-1.5V6A1.5 1.5 0 0 0 20 4.5H4A1.5 1.5 0 0 0 2.5 6v10A1.5 1.5 0 0 0 4 17.5h7.01z" fill-rule="evenodd"/></svg><svg viewBox="-106 0 469 469.333" fill="currentColor" id="i-viewport--mobile" xmlns="http://www.w3.org/2000/svg"><path d="M206.246 0H50.086C22.527.031.196 22.363.168 49.922v369.492c.027 27.559 22.36 49.89 49.918 49.918h156.16c27.559-.027 49.89-22.36 49.922-49.918V49.922C256.137 22.363 233.805.032 206.246 0zm28.586 419.414c-.016 15.781-12.805 28.57-28.586 28.586H50.086c-15.781-.016-28.57-12.805-28.586-28.586V49.922c.016-15.785 12.805-28.574 28.586-28.59h156.16c15.781.016 28.57 12.805 28.586 28.59zm0 0"/><path d="M160.168 42.668h-64c-5.89 0-10.668 4.773-10.668 10.664S90.277 64 96.168 64h64c5.89 0 10.664-4.777 10.664-10.668s-4.773-10.664-10.664-10.664zM149.5 405.332c0 11.785-9.55 21.336-21.332 21.336-11.785 0-21.336-9.55-21.336-21.336 0-11.781 9.55-21.332 21.336-21.332 11.781 0 21.332 9.55 21.332 21.332zm0 0"/></svg><svg viewBox="0 0 512 512" style="enable-background:new 0 0 512 512" xml:space="preserve" fill="currentColor" id="i-viewport--tablet" xmlns="http://www.w3.org/2000/svg"><path d="M242.286 36.571h27.429v18.286h-27.429zM256 420.571c-17.643 0-32 14.357-32 32s14.357 32 32 32 32-14.357 32-32-14.357-32-32-32zm0 45.715c-7.563 0-13.714-6.152-13.714-13.714s6.152-13.714 13.714-13.714 13.714 6.152 13.714 13.714-6.151 13.714-13.714 13.714z"/><path d="M406.804 0H105.196C79.964 0 59.429 20.478 59.429 45.647v420.705c0 25.17 20.536 45.647 45.768 45.647h301.607c25.232 0 45.768-20.478 45.768-45.647V45.647C452.571 20.478 432.036 0 406.804 0zm27.482 466.353c0 15.089-12.33 27.362-27.482 27.362H105.196c-15.152 0-27.482-12.272-27.482-27.362V45.647c0-15.089 12.33-27.362 27.482-27.362h301.607c15.152 0 27.482 12.272 27.482 27.362v420.706z"/></svg><svg viewBox="0 0 261.76 226.69" id="i-vuejs" xmlns="http://www.w3.org/2000/svg"><path d="m161.096.001-30.224 52.35L100.647.002H-.005L130.872 226.69 261.749 0z" fill="#41b883"/><path d="m161.096.001-30.224 52.35L100.647.002H52.346l78.526 136.01L209.398.001z" fill="#34495e"/></svg></svg>