<svg fill="currentColor" height="40" viewBox="0 0 40 40" width="40" xmlns="http://www.w3.org/2000/svg"><g clip-rule="evenodd" fill="#000" fill-rule="evenodd"><path d="m3.75 10c0-.69036.55964-1.25 1.25-1.25h30c.6904 0 1.25.55964 1.25 1.25 0 .6904-.5596 1.25-1.25 1.25h-30c-.69036 0-1.25-.5596-1.25-1.25z"/><path d="m3.75 30c0-.6904.55964-1.25 1.25-1.25h30c.6904 0 1.25.5596 1.25 1.25s-.5596 1.25-1.25 1.25h-30c-.69036 0-1.25-.5596-1.25-1.25z"/><path d="m10.4167 20c0-.6904.5596-1.25 1.25-1.25h23.3333c.6904 0 1.25.5596 1.25 1.25s-.5596 1.25-1.25 1.25h-23.3333c-.6904 0-1.25-.5596-1.25-1.25z"/></g></svg>
